<svg xmlns="http://www.w3.org/2000/svg" xmlns:xlink="http://www.w3.org/1999/xlink" xmlns:s="https://github.com/nturley/netlistsvg" width="588" height="277.5">
  <style>svg {
    stroke:#000;
    fill:none;
  }
  text {
    fill:#000;
    stroke:none;
    font-size:10px;
    font-weight: bold;
    font-family: "Courier New", monospace;
  }
  .nodelabel {
    text-anchor: middle;
  }
  .inputPortLabel {
    text-anchor: end;
  }
  .splitjoinBody {
    fill:#000;
  }</style>
  <g s:type="ge" transform="translate(125,175.5)" s:width="25" s:height="25" id="cell_$ge$Instrmem.sv:10$2">
    <s:alias val="$ge"/>
    <circle r="12.5" cx="12.5" cy="12.5" class="cell_$ge$Instrmem.sv:10$2"/>
    <line x1="7.5" x2="17.5" y1="7.5" y2="12.5" class="cell_$ge$Instrmem.sv:10$2"/>
    <line x1="7.5" x2="17.5" y1="17.5" y2="12.5" class="cell_$ge$Instrmem.sv:10$2"/>
    <line x1="7.5" x2="17.5" y1="20" y2="15" class="cell_$ge$Instrmem.sv:10$2"/>
    <g s:x="3" s:y="5" s:pid="A"/>
    <g s:x="3" s:y="20" s:pid="B"/>
    <g s:x="25" s:y="12.5" s:pid="Y"/>
  </g>
  <g s:type="and" transform="translate(257.66666666666663,228)" s:width="30" s:height="25" id="cell_$logic_and$Instrmem.sv:10$4">
    <s:alias val="$and"/>
    <s:alias val="$logic_and"/>
    <s:alias val="$_AND_"/>
    <path d="M0,0 L0,25 L15,25 A15 12.5 0 0 0 15,0 Z" class="cell_$logic_and$Instrmem.sv:10$4"/>
    <g s:x="0" s:y="5" s:pid="A"/>
    <g s:x="0" s:y="20" s:pid="B"/>
    <g s:x="30" s:y="12.5" s:pid="Y"/>
  </g>
  <g s:type="lt" transform="translate(125,235.5)" s:width="25" s:height="25" id="cell_$lt$Instrmem.sv:10$3">
    <s:alias val="$lt"/>
    <circle r="12.5" cx="12.5" cy="12.5" class="cell_$lt$Instrmem.sv:10$3"/>
    <line x1="7.5" x2="17.5" y1="12.5" y2="7.5" class="cell_$lt$Instrmem.sv:10$3"/>
    <line x1="7.5" x2="17.5" y1="12.5" y2="17.5" class="cell_$lt$Instrmem.sv:10$3"/>
    <g s:x="3" s:y="5" s:pid="A"/>
    <g s:x="3" s:y="20" s:pid="B"/>
    <g s:x="25" s:y="12.5" s:pid="Y"/>
  </g>
  <g s:type="generic" transform="translate(210,130)" s:width="30" s:height="40" id="cell_$memrd$\instrmem$Instrmem.sv:11$5">
    <text x="15" y="-4" class="nodelabel cell_$memrd$\instrmem$Instrmem.sv:11$5" s:attribute="ref">$memrd</text>
    <rect width="30" height="60" s:generic="body" class="cell_$memrd$\instrmem$Instrmem.sv:11$5"/>
    <g transform="translate(0,10)" s:x="0" s:y="10" s:pid="in0" id="port_$memrd$\instrmem$Instrmem.sv:11$5~ADDR">
      <text x="-3" y="-4" class="inputPortLabel cell_$memrd$\instrmem$Instrmem.sv:11$5">ADDR</text>
    </g>
    <g transform="translate(0,30)" s:x="0" s:y="10" s:pid="in0" id="port_$memrd$\instrmem$Instrmem.sv:11$5~CLK">
      <text x="-3" y="-4" class="inputPortLabel cell_$memrd$\instrmem$Instrmem.sv:11$5">CLK</text>
    </g>
    <g transform="translate(0,50)" s:x="0" s:y="10" s:pid="in0" id="port_$memrd$\instrmem$Instrmem.sv:11$5~EN">
      <text x="-3" y="-4" class="inputPortLabel cell_$memrd$\instrmem$Instrmem.sv:11$5">EN</text>
    </g>
    <g transform="translate(30,10)" s:x="30" s:y="10" s:pid="out0" id="port_$memrd$\instrmem$Instrmem.sv:11$5~DATA">
      <text x="5" y="-4" style="fill:#000; stroke:none" class="cell_$memrd$\instrmem$Instrmem.sv:11$5">DATA</text>
    </g>
  </g>
  <g s:type="generic" transform="translate(210,22)" s:width="30" s:height="40" id="cell_$memrd$\instrmem$Instrmem.sv:13$6">
    <text x="15" y="-4" class="nodelabel cell_$memrd$\instrmem$Instrmem.sv:13$6" s:attribute="ref">$memrd</text>
    <rect width="30" height="60" s:generic="body" class="cell_$memrd$\instrmem$Instrmem.sv:13$6"/>
    <g transform="translate(0,10)" s:x="0" s:y="10" s:pid="in0" id="port_$memrd$\instrmem$Instrmem.sv:13$6~ADDR">
      <text x="-3" y="-4" class="inputPortLabel cell_$memrd$\instrmem$Instrmem.sv:13$6">ADDR</text>
    </g>
    <g transform="translate(0,30)" s:x="0" s:y="10" s:pid="in0" id="port_$memrd$\instrmem$Instrmem.sv:13$6~CLK">
      <text x="-3" y="-4" class="inputPortLabel cell_$memrd$\instrmem$Instrmem.sv:13$6">CLK</text>
    </g>
    <g transform="translate(0,50)" s:x="0" s:y="10" s:pid="in0" id="port_$memrd$\instrmem$Instrmem.sv:13$6~EN">
      <text x="-3" y="-4" class="inputPortLabel cell_$memrd$\instrmem$Instrmem.sv:13$6">EN</text>
    </g>
    <g transform="translate(30,10)" s:x="30" s:y="10" s:pid="out0" id="port_$memrd$\instrmem$Instrmem.sv:13$6~DATA">
      <text x="5" y="-4" style="fill:#000; stroke:none" class="cell_$memrd$\instrmem$Instrmem.sv:13$6">DATA</text>
    </g>
  </g>
  <g s:type="mux" transform="translate(443,110.5)" s:width="20" s:height="40" id="cell_$procmux$8">
    <s:alias val="$pmux"/>
    <s:alias val="$mux"/>
    <s:alias val="$_MUX_"/>
    <path d="M0,0 L20,10 L20,30 L0,40 Z" class="cell_$procmux$8"/>
    <g s:x="0" s:y="10" s:pid="A"/>
    <g s:x="0" s:y="30" s:pid="B"/>
    <g s:x="10" s:y="35" s:pid="S"/>
    <g s:x="20" s:y="20" s:pid="Y"/>
  </g>
  <g s:type="inputExt" transform="translate(12,22)" s:width="30" s:height="20" id="cell_rst">
    <text x="15" y="-4" class="nodelabel cell_rst" s:attribute="ref">rst</text>
    <s:alias val="$_inputExt_"/>
    <path d="M0,0 L0,20 L15,20 L30,10 L15,0 Z" class="cell_rst"/>
    <g s:x="28" s:y="10" s:pid="Y"/>
  </g>
  <g s:type="inputExt" transform="translate(54,170.5)" s:width="30" s:height="20" id="cell_addr_i">
    <text x="15" y="-4" class="nodelabel cell_addr_i" s:attribute="ref">addr_i</text>
    <s:alias val="$_inputExt_"/>
    <path d="M0,0 L0,20 L15,20 L30,10 L15,0 Z" class="cell_addr_i"/>
    <g s:x="28" s:y="10" s:pid="Y"/>
  </g>
  <g s:type="outputExt" transform="translate(498,120.5)" s:width="30" s:height="20" id="cell_instruction_o">
    <text x="15" y="-4" class="nodelabel cell_instruction_o" s:attribute="ref">instruction_o</text>
    <s:alias val="$_outputExt_"/>
    <path d="M30,0 L30,20 L15,20 L0,10 L15,0 Z" class="cell_instruction_o"/>
    <g s:x="0" s:y="10" s:pid="A"/>
  </g>
  <g s:type="constant" transform="translate(54,22.5)" s:width="30" s:height="20" id="cell_00000000000000000000000000000000">
    <text x="15" y="-4" class="nodelabel cell_00000000000000000000000000000000" s:attribute="ref">0x0</text>
    <s:alias val="$_constant_"/>
    <rect width="30" height="20" class="cell_00000000000000000000000000000000"/>
    <g s:x="30" s:y="10" s:pid="Y"/>
  </g>
  <g s:type="constant" transform="translate(54,245.5)" s:width="30" s:height="20" id="cell_00000000000000000000000001100100">
    <text x="15" y="-4" class="nodelabel cell_00000000000000000000000001100100" s:attribute="ref">0x64</text>
    <s:alias val="$_constant_"/>
    <rect width="30" height="20" class="cell_00000000000000000000000001100100"/>
    <g s:x="30" s:y="10" s:pid="Y"/>
  </g>
  <line x1="82" x2="128" y1="180.5" y2="180.5" class="net_3"/>
  <line x1="82" x2="100" y1="180.5" y2="180.5" class="net_3"/>
  <line x1="100" x2="100" y1="180.5" y2="240.5" class="net_3"/>
  <circle cx="100" cy="180.5" r="2" style="fill:#000" class="net_3"/>
  <line x1="100" x2="128" y1="240.5" y2="240.5" class="net_3"/>
  <line x1="82" x2="100" y1="180.5" y2="180.5" class="net_3"/>
  <line x1="100" x2="100" y1="180.5" y2="140.5" class="net_3"/>
  <line x1="100" x2="210" y1="140.5" y2="140.5" class="net_3"/>
  <line x1="84" x2="110" y1="32.5" y2="32.5" class="net_103,104,105,106,107,108,109,110,111,112,113,114,115,116,117,118,119,120,121,122,123,124,125,126,127,128,129,130,131,132,133,134"/>
  <line x1="110" x2="110" y1="32.5" y2="195.5" class="net_103,104,105,106,107,108,109,110,111,112,113,114,115,116,117,118,119,120,121,122,123,124,125,126,127,128,129,130,131,132,133,134"/>
  <circle cx="110" cy="32.5" r="2" style="fill:#000" class="net_103,104,105,106,107,108,109,110,111,112,113,114,115,116,117,118,119,120,121,122,123,124,125,126,127,128,129,130,131,132,133,134"/>
  <line x1="110" x2="128" y1="195.5" y2="195.5" class="net_103,104,105,106,107,108,109,110,111,112,113,114,115,116,117,118,119,120,121,122,123,124,125,126,127,128,129,130,131,132,133,134"/>
  <line x1="84" x2="210" y1="32.5" y2="32.5" class="net_103,104,105,106,107,108,109,110,111,112,113,114,115,116,117,118,119,120,121,122,123,124,125,126,127,128,129,130,131,132,133,134"/>
  <line x1="150" x2="160" y1="188" y2="188" class="net_36"/>
  <line x1="160" x2="160" y1="188" y2="233" class="net_36"/>
  <line x1="160" x2="257.66666666666663" y1="233" y2="233" class="net_36"/>
  <line x1="150" x2="257.66666666666663" y1="248" y2="248" class="net_37"/>
  <line x1="84" x2="128" y1="255.5" y2="255.5" class="net_135,136,137,138,139,140,141,142,143,144,145,146,147,148,149,150,151,152,153,154,155,156,157,158,159,160,161,162,163,164,165,166"/>
  <line x1="160" x2="160" y1="72.5" y2="160.5" class="net_x"/>
  <circle cx="160" cy="72.5" r="2" style="fill:#000" class="net_x"/>
  <circle cx="160" cy="160.5" r="2" style="fill:#000" class="net_x"/>
  <line x1="160" x2="210" y1="160.5" y2="160.5" class="net_x"/>
  <line x1="160" x2="160" y1="72.5" y2="180.5" class="net_x"/>
  <line x1="160" x2="210" y1="180.5" y2="180.5" class="net_x"/>
  <line x1="160" x2="160" y1="72.5" y2="52.5" class="net_x"/>
  <line x1="160" x2="210" y1="52.5" y2="52.5" class="net_x"/>
  <line x1="160" x2="210" y1="72.5" y2="72.5" class="net_x"/>
  <line x1="241" x2="418" y1="32.5" y2="32.5" class="net_71,72,73,74,75,76,77,78,79,80,81,82,83,84,85,86,87,88,89,90,91,92,93,94,95,96,97,98,99,100,101,102"/>
  <line x1="418" x2="418" y1="32.5" y2="120.5" class="net_71,72,73,74,75,76,77,78,79,80,81,82,83,84,85,86,87,88,89,90,91,92,93,94,95,96,97,98,99,100,101,102"/>
  <line x1="418" x2="443" y1="120.5" y2="120.5" class="net_71,72,73,74,75,76,77,78,79,80,81,82,83,84,85,86,87,88,89,90,91,92,93,94,95,96,97,98,99,100,101,102"/>
  <line x1="241" x2="443" y1="140.5" y2="140.5" class="net_39,40,41,42,43,44,45,46,47,48,49,50,51,52,53,54,55,56,57,58,59,60,61,62,63,64,65,66,67,68,69,70"/>
  <line x1="287.66666666666663" x2="453" y1="240.5" y2="240.5" class="net_38"/>
  <line x1="453" x2="453" y1="240.5" y2="145.5" class="net_38"/>
  <line x1="463" x2="498" y1="130.5" y2="130.5" class="net_4,5,6,7,8,9,10,11,12,13,14,15,16,17,18,19,20,21,22,23,24,25,26,27,28,29,30,31,32,33,34,35"/>
</svg>
